<svg version="1" xmlns="http://www.w3.org/2000/svg" width="682.667" height="682.667" viewBox="0 0 512.000000 512.000000"><path d="M114.7 11.6c-.1.1-2 .4-4.2.7-16 2.3-28.1 11-34.2 24.7-2.8 6.1-4 12.8-4.2 22.9-.1 4.6-.4 8.8-.7 9.2-.3.5 0 .9.7.9.8 0 .8.4.1 1.3-.6.7-.7 1.9-.3 2.6.5.7.5 2.7.1 4.5-.5 2.4-.6 73.7-.1 113.8v8c0 1.8.1 5 .3 7 .3 2.1.1 3.8-.4 3.8-.4 0-.4 1 0 2.2.6 2.1.7 4.8.2 7.3-.5 2.6-.4 6.2.2 8.2.4 1.2.3 2.5-.3 2.8-.5.4-.6 1.1-.3 1.7.4.5.6 3.4.5 6.4-.3 9.9-.2 11.9.1 15.6.3 2.1.1 3.8-.4 3.8-.4 0-.4 1 0 2.2.6 2.1.7 4.8.2 7.3-.5 2.6-.4 6.2.2 8.2.4 1.2.3 2.5-.3 2.8-.5.4-.6 1.1-.3 1.7.4.5.6 3.4.5 6.4-.3 9.9-.2 11.9.1 15.7.3 2 0 3.7-.4 3.7-.5 0-.6.4-.3 1 .9 1.4 1.3 8 .5 8.5-.4.2-.4 2.7 0 5.5.4 2.7.3 5-.1 5-.5 0-.6.6-.3 1.4.8 2.2 1 14.6.2 14.6-.4 0-.5.6-.2 1.4.8 2.2 1 14.6.2 14.6-.4 0-.5.6-.2 1.4.8 2.1 1 14.6.2 14.6-.4 0-.3 1.2.1 2.7.4 1.6.4 4.1.1 5.8-.4 1.6-.3 4 .1 5.2.5 1.3.4 2.5-.2 2.8-.5.4-.6 1.1-.3 1.7.4.5.6 3.4.5 6.4-.3 9.9-.2 11.9.1 15.6.3 2.1.1 3.8-.4 3.8-.4 0-.4 1 0 2.2.6 2.1.7 4.8.2 7.3-.5 2.6-.4 6.2.2 8.2.4 1.2.3 2.5-.2 2.8-.7.4-.7 1.3 0 2.4.5 1 .7 2 .5 2.3-1.1 1-.3 16.5 1 21 3.8 12.7 16.9 26.9 28.8 31.2 1.8.7 4.6 1.9 6.2 2.7 2.6 1.3 22.4 1.5 167 1.3 90.2-.1 164.3-.3 164.6-.3.3-.1.7-109.9.8-244.1.2-200.9 0-244-1.1-244.1-2-.2-324.9-.4-325.1-.3z"/></svg>